[b][color=black]The.Vampire.Diaries.S03E14.HDTV [H264] [MPEG-4]-Sebastian[Ub3r]

Format                           : MPEG-4
Format profile                   : Base Media / Version 2
Codec ID                         : mp42
File size                        : 157 MiB
Duration                         : 42mn 3s
Overall bit rate                 : 521 Kbps
Encoded date                     : UTC 2012-09-19 11:39:51
Tagged date                      : UTC 2012-09-19 11:48:42

Video
ID                               : 1
Format                           : AVC
Format/Info                      : Advanced Video Codec
Format profile                   : Main@L3.0
Format settings, CABAC           : Yes
Format settings, ReFrames        : 4 frames
Codec ID                         : avc1
Codec ID/Info                    : Advanced Video Coding
Duration                         : 42mn 3s
Bit rate mode                    : Variable
Bit rate                         : 388 Kbps
Width                            : 624 pixels
Height                           : 352 pixels
Display aspect ratio             : 16:9
Frame rate mode                  : Variable
Frame rate                       : 23.976 fps
Minimum frame rate               : 23.974 fps
Maximum frame rate               : 23.981 fps
Color space                      : YUV
Chroma subsampling               : 4:2:0
Bit depth                        : 8 bits
Scan type                        : Progressive
Bits/(Pixel*Frame)               : 0.074
Stream size                      : 117 MiB (74%)
Writing library                  : x264 core 120
Encoded date                     : UTC 2012-09-19 11:39:51
Tagged date                      : UTC 2012-09-19 11:48:40

Audio
ID                               : 2
Format                           : AAC
Format/Info                      : Advanced Audio Codec
Format profile                   : LC
Codec ID                         : 40
Duration                         : 42mn 3s
Bit rate mode                    : Variable
Bit rate                         : 128 Kbps
Maximum bit rate                 : 175 Kbps
Channel(s)                       : 2 channels
Channel positions                : Front: L R
Sampling rate                    : 48.0 KHz
Compression mode                 : Lossy
Stream size                      : 38.5 MiB (25%)
Encoded date                     : UTC 2012-09-19 11:39:51
Tagged date                      : UTC 2012-09-19 11:48:40

Snapshots[/color][/b]
[img]http://imageshack.us/a/img542/4103/thevampirediariess03e14.jpg[/img]

[img]http://kastatic.com/i2/users/133df62bbf28e62494bb17fe11078f1a.gif[/img][img]http://kastatic.com/i2/users/133df62bbf28e62494bb17fe11078f1a.gif[/img]